<svg aria-hidden="true" style="position:absolute;width:0;height:0;overflow:hidden" xmlns="http://www.w3.org/2000/svg">
  <defs>
    <!-- Product advantages -->
    <symbol id="icon-selection" viewBox="0 0 32 32">
      <path fill="none" stroke="#101828" style="stroke:var(--color2, #101828)" stroke-linejoin="round" stroke-linecap="round" stroke-width="1.5" d="M25.333 4H6.666a2.667 2.667 0 0 0-2.667 2.667v18.667a2.667 2.667 0 0 0 2.667 2.667h18.667A2.667 2.667 0 0 0 28 25.334V6.667A2.667 2.667 0 0 0 25.333 4zM4 10h24M4 16h24M4 22h24"/>
      <path fill="none" stroke="#e44848" style="stroke:var(--color1, #e44848)" stroke-linejoin="round" stroke-linecap="round" stroke-width="1.5" d="M10 8v4M22 14v4M14 20v4"/>
    </symbol>
    <symbol id="icon-quality" viewBox="0 0 32 32">
      <path fill="none" stroke="#e44848" style="stroke:var(--color1, #e44848)" stroke-linejoin="round" stroke-linecap="round" stroke-width="1.5" d="M11.5 14.5 16 19 28 7"/>
      <path fill="none" stroke="#101828" style="stroke:var(--color2, #101828)" stroke-linejoin="round" stroke-linecap="round" stroke-width="1.5" d="M28 16c0 6.627-5.373 12-12 12S4 22.627 4 16 9.373 4 16 4c1.421 0 2.784.247 4.049.7"/>
    </symbol>
    <symbol id="icon-booking" viewBox="0 0 32 32">
      <path fill="none" stroke="#101828" style="stroke:var(--color2, #101828)" stroke-linejoin="round" stroke-linecap="round" stroke-width="1.5" d="M25.333 4H6.666a2.667 2.667 0 0 0-2.667 2.667v18.667a2.667 2.667 0 0 0 2.667 2.667h18.667A2.667 2.667 0 0 0 28 25.334V6.667A2.667 2.667 0 0 0 25.333 4z"/>
      <path fill="none" stroke="#e44848" style="stroke:var(--color1, #e44848)" stroke-linejoin="round" stroke-linecap="round" stroke-width="1.5" d="M21.5 2v4M10.5 2v4"/>
      <path fill="none" stroke="#101828" style="stroke:var(--color2, #101828)" stroke-linejoin="round" stroke-linecap="round" stroke-width="1.5" d="M4 12h24"/>
    </symbol>
    <symbol id="icon-phone" viewBox="0 0 32 32">
      <path fill="none" stroke="#e44848" style="stroke:var(--color1, #e44848)" stroke-linejoin="round" stroke-linecap="round" stroke-width="1.5" d="M18 6.5a10.62 10.62 0 0 1 7.5 7.5M17.5 10c1.08.287 2.065.854 2.856 1.644S21.714 13.419 22 14.5"/>
      <path fill="none" stroke="#101828" style="stroke:var(--color2, #101828)" stroke-linejoin="round" stroke-linecap="round" stroke-width="1.5" d="M11.36 15.583a10.928 10.928 0 0 0 5.096 5.083 1.052 1.052 0 0 0 1.033-.078l3.267-2.182a1.03 1.03 0 0 1 .993-.092l6.116 2.627a1.03 1.03 0 0 1 .627 1.084 6.272 6.272 0 0 1-6.22 5.475A17.769 17.769 0 0 1 4.501 9.729a6.27 6.27 0 0 1 5.475-6.22 1.032 1.032 0 0 1 1.084.627l2.627 6.129a1.045 1.045 0 0 1-.079.98l-2.182 3.319a1.054 1.054 0 0 0-.066 1.019z"/>
    </symbol>
    <!-- Social icons -->
    <symbol id="icon-instagram" viewBox="0 0 32 32">
      <path d="M28.718 10.756a9.264 9.264 0 0 0-.596-3.145 6.547 6.547 0 0 0-3.743-3.737 9.42 9.42 0 0 0-3.108-.596c-1.368-.061-1.801-.078-5.273-.078s-3.916 0-5.274.078a9.418 9.418 0 0 0-3.106.596 6.541 6.541 0 0 0-3.743 3.737 9.288 9.288 0 0 0-.596 3.101c-.061 1.367-.08 1.8-.08 5.265s0 3.909.08 5.265a9.335 9.335 0 0 0 .596 3.104 6.548 6.548 0 0 0 3.744 3.735 9.37 9.37 0 0 0 3.106.639c1.369.061 1.803.079 5.274.079s3.916 0 5.274-.079a9.357 9.357 0 0 0 3.108-.595 6.555 6.555 0 0 0 3.743-3.737 9.346 9.346 0 0 0 .596-3.104c.061-1.365.08-1.798.08-5.265-.003-3.466-.003-3.906-.082-5.264zM15.99 22.531c-3.631 0-6.572-2.936-6.572-6.561s2.941-6.561 6.572-6.561c3.628 0 6.572 2.936 6.572 6.561s-2.944 6.561-6.572 6.561zm6.834-11.835a1.53 1.53 0 1 1 0-3.06 1.53 1.53 0 1 1 0 3.06z"/>
      <path d="M15.992 19.976a4.004 4.004 0 1 0 0-8.009 4.004 4.004 0 0 0 0 8.009z"/>
    </symbol>
    <symbol id="icon-facebook" viewBox="0 0 32 32">
      <path d="M19.52 4.64h.96v3.6h-1.2c-.48 0-.96 0-1.2.24s-.24.48-.24 1.04v1.28h2.64v3.04h-2.64v13.2h-4.08V13.76H11.6v-3.04h2.16V9.68c0-1.76.24-3.04.72-3.6.72-1.04 2.16-1.52 4.32-1.52.24.08.48.08.72.08z"/>
    </symbol>
    <symbol id="icon-youtube" viewBox="0 0 32 32">
      <path d="M24.24 6c-1.36-.08-4.16-.16-8.4-.16h-.56c-4.08 0-6.8.08-8.16.24-1.84.16-3.12.64-3.84 1.28-.64.56-1.12 1.6-1.28 2.96-.08.88-.16 2.72-.16 5.52v.4c0 2.64.08 4.48.24 5.36.24 1.28.64 2.24 1.44 2.8.8.64 2.16 1.04 4.08 1.2 1.36.08 4.16.16 8.4.16h.56c4.08 0 6.8-.08 8.16-.24 1.84-.16 3.12-.64 3.84-1.28.64-.56 1.12-1.6 1.28-2.96.08-.88.16-2.72.16-5.52v-.4c0-2.64-.08-4.48-.24-5.36-.24-1.28-.64-2.24-1.44-2.8-.8-.64-2.16-1.04-4.08-1.2zm-3.12 9.84-8.8 5.28V10.56l8.8 5.28z"/>
    </symbol>
    <symbol id="icon-github" viewBox="0 0 32 32">
      <path d="M15.04.031c-.103.012-.451.047-.773.078-2.925.287-5.944 1.572-8.32 3.542A19.478 19.478 0 0 0 3.68 5.952C1.738 8.366.575 11.093.126 14.292c-.132.936-.132 3.274-.002 4.213.626 4.5 2.779 8.282 6.276 11.022.622.488 1.824 1.239 2.587 1.617.948.47 1.955.854 2.238.854.29 0 .546-.15.693-.376l.002-.003c.101-.171.106-.268.098-1.798-.005-.89-.021-1.63-.036-1.644s-.266.012-.557.058c-.61.097-1.553.11-2.015.028-1.274-.226-2.217-.896-2.698-1.917-.67-1.422-1.049-1.974-1.649-2.402-1.069-.762-1.115-1.121-.14-1.116.953.004 1.749.556 2.558 1.77.478.717.86 1.086 1.399 1.352.868.428 1.765.436 2.868.023.248-.092.311-.141.335-.257.155-.757.376-1.297.721-1.754.116-.153.21-.292.21-.307s-.057-.029-.126-.029-.4-.048-.733-.106c-3.635-.636-5.584-2.463-6.183-5.796-.165-.914-.204-2.579-.08-3.325a6.372 6.372 0 0 1 1.193-2.809l-.012.016.349-.473-.121-.434c-.093-.335-.125-.616-.142-1.234-.025-.908.056-1.516.296-2.232l.146-.435.347-.015c.844-.037 2.263.525 3.683 1.46l.358.236.553-.135c1.19-.289 1.929-.367 3.46-.367s2.269.078 3.46.368l.554.134.513-.334c1.341-.874 2.755-1.412 3.58-1.364l.293.017.148.453c.244.741.318 1.308.293 2.213-.017.62-.049.899-.143 1.237l-.123.437.25.324a6.437 6.437 0 0 1 1.172 2.383l.01.045c.248.985.232 2.758-.036 4.094-.653 3.259-2.783 5.071-6.57 5.591l-.464.063.232.3c.295.38.478.749.612 1.232.191.69.226 1.342.208 3.867-.017 2.321-.014 2.406.089 2.58.135.229.414.38.705.38.475 0 2.401-.863 3.562-1.596 3.74-2.361 6.408-6.234 7.308-10.61.257-1.247.314-1.86.313-3.394 0-1.571-.058-2.164-.34-3.493-.938-4.412-3.614-8.228-7.421-10.576A15.475 15.475 0 0 0 18.046.137l-.079-.009c-.63-.08-2.533-.146-2.926-.1z"/>
    </symbol>
    <!-- Camper features -->
    <symbol id="icon-adults" viewBox="0 0 32 32">
      <path d="M20.804 5.26c-1.059.192-1.898.565-2.68 1.187-2.248 1.792-3.002 4.937-1.829 7.645.222.512.698 1.248 1.045 1.615l.264.28-.547.322a10.332 10.332 0 0 0-3.742 3.767l-.026.05c-.235.414-.794 1.701-.898 2.066-.11.392-.106 1.208.01 1.65.197.739.61 1.445 1.125 1.916.334.307 1.09.698 1.572.816.238.058 1.467.072 6.428.072h6.134l.4-.125c1.139-.355 1.964-1.066 2.458-2.116.264-.562.336-.957.304-1.666v-.01c0-.397-.083-.774-.233-1.115l.007.018c-.869-2.317-2.332-4.078-4.396-5.294a24.008 24.008 0 0 1-.732-.429l.198.112c-.011-.008.077-.122.195-.251.768-.834 1.285-1.882 1.514-3.074.098-.515.083-2.013-.027-2.514-.517-2.362-2.112-4.142-4.274-4.772-.408-.118-.605-.142-1.307-.157a9.565 9.565 0 0 0-.987.009l.027-.001zm1.586 2.902c1.781.621 2.732 2.817 2.052 4.739-.467 1.32-1.532 2.194-2.785 2.287-.52.038-.914-.046-1.447-.314a3.809 3.809 0 0 1-1.367-1.278l-.009-.015c-1.259-2.119-.274-4.868 1.97-5.497.402-.112 1.146-.075 1.586.078zm-14.361.885c-1.821.4-3.333 1.908-3.85 3.838-.126.472-.142.629-.142 1.386 0 .703.019.925.114 1.264.226.824.589 1.583 1.005 2.103l.176.219-.552.355a8.428 8.428 0 0 0-3.028 3.421l-.022.05c-.478 1.008-.514 1.957-.112 2.946.301.739 1.01 1.512 1.703 1.855.667.328.973.357 3.709.338 2.618-.018 2.612-.016 2.965-.352.282-.267.379-.526.379-.997 0-.49-.11-.763-.41-1.016-.349-.293-.326-.291-2.922-.291-2.658 0-2.618.005-2.922-.341-.214-.245-.218-.387-.016-.875a5.275 5.275 0 0 1 2.655-2.825l.032-.014c.632-.301 1.165-.422 2.092-.482 1.24-.077 1.92-.264 2.753-.755.456-.269 1.272-1.048 1.579-1.509 1.455-2.175 1.143-5.028-.759-6.934a5.096 5.096 0 0 0-2.097-1.299l-.036-.01c-.496-.158-1.732-.198-2.293-.074zm1.514 2.746c.661.152 1.333.698 1.645 1.335.946 1.927-.685 4.11-2.682 3.594-1.49-.386-2.261-2.18-1.563-3.639.458-.963 1.589-1.524 2.601-1.29zm13.183 6.052c1.346.219 2.665.923 3.734 1.996a6.966 6.966 0 0 1 1.437 2.034c.301.626.336.898.181 1.357-.12.35-.554.795-.856.875-.158.043-1.845.056-5.841.045-5.55-.014-5.619-.014-5.803-.123-.358-.21-.693-.896-.619-1.271.09-.45.632-1.509 1.088-2.127a7.492 7.492 0 0 1 3.019-2.371l.048-.018a6.263 6.263 0 0 1 2.473-.499c.402 0 .796.037 1.178.109l-.039-.006z"/>
    </symbol>
    <symbol id="icon-engine" viewBox="0 0 32 32">
      <path d="M7.574 4.036a2.755 2.755 0 0 0-2.178 2.07l-.004.019c-.042.2-.059 3.404-.059 11.082v10.799H18.67v-9.975h1.967l.021 3.586c.018 3.149.03 3.623.107 3.881.338 1.119 1.141 1.972 2.199 2.333.368.126.511.147 1.04.147s.672-.021 1.04-.147a3.379 3.379 0 0 0 1.932-1.686l.009-.02c.374-.787.352-.32.352-7.802 0-7.52.022-7.037-.352-7.805-.264-.543-.658-.975-3.164-3.477l-2.378-2.373-1.413 1.413 1.373 1.375c.755.755 1.373 1.391 1.373 1.411 0 .022-.125.102-.28.181a3.365 3.365 0 0 0-1.651 1.89l-.007.024c-.299.925-.168 2.01.338 2.793.301.466.552.723.997 1.021.516.344 1.15.549 1.833.549.37 0 .726-.06 1.059-.172l-.024.007.299-.101-.029 9.986-.117.218a1.87 1.87 0 0 1-.326.406c-.635.575-1.636.376-2.055-.406-.115-.216-.117-.251-.142-3.686-.026-3.193-.035-3.487-.125-3.734a2.759 2.759 0 0 0-1.644-1.676l-.019-.006c-.28-.107-.44-.126-1.267-.147l-.946-.022v-4.793c0-3.293-.019-4.881-.059-5.075-.186-.888-.813-1.603-1.728-1.968l-.32-.128-4.428-.008a268.779 268.779 0 0 0-4.732.017l.17-.002zm8.429 5.966v3.333H8.001V6.668h8.002v3.333zm8.454.755c.493.168.88.717.88 1.245a1.38 1.38 0 0 1-1.331 1.333h-.002a1.4 1.4 0 0 1-.935-.399 1.307 1.307 0 0 1 0-1.87 1.299 1.299 0 0 1 1.396-.306l-.009-.003zm-8.454 9.914v4.666H8.001v-9.335h8.002v4.668z"/>
    </symbol>
    <symbol id="icon-transmission" viewBox="0 0 32 32">
      <path d="M5.667 2.935c-1.301.341-2.4 1.448-2.735 2.753a4.547 4.547 0 0 0 .006 1.992l-.006-.031A3.882 3.882 0 0 0 5 10.142l.023.01.463.222.018 1.818.018 1.816.2.405c.264.533.671.939 1.203 1.202l.405.2 3.473.054.027 4.402.026 4.404.2.405c.264.533.671.939 1.203 1.203l.405.2 2.431.016c1.664.011 2.493-.002 2.631-.042.451-.133.783-.6.784-1.109a1.142 1.142 0 0 0-.659-1.082l-.007-.003c-.197-.091-.384-.099-2.357-.099-1.879-.002-2.152-.011-2.226-.086-.077-.075-.083-.506-.072-4.146l.014-4.063 2.268-.027c2.479-.029 2.413-.021 2.73-.355.429-.451.408-1.259-.043-1.682-.346-.325-.101-.31-5.35-.31-4.29 0-4.807-.008-4.883-.083-.072-.072-.083-.288-.082-1.56l.002-1.477.466-.222a3.87 3.87 0 0 0 2.087-2.476l.006-.027a4.547 4.547 0 0 0-.006-1.992l.006.031A3.934 3.934 0 0 0 7.677 2.94l-.028-.007a4.719 4.719 0 0 0-2.014.009l.031-.006zm1.531 2.384c.531.189.92.762.92 1.351v.013c0 .787-.638 1.424-1.424 1.424h-.027.001c-1 0-1.679-.935-1.384-1.909.085-.283.419-.672.703-.816.406-.208.754-.226 1.211-.062zm14.966 4.278a1.34 1.34 0 0 0-.357.251c-.318.341-.31.216-.309 4.166.002 3.405.006 3.628.101 3.83.4.867 1.663.899 2.13.053.069-.125.094-.36.115-1.093l.027-.933.773-.032c1.122-.046 1.589-.24 2.295-.951.438-.443.743-.975.848-1.488a4.91 4.91 0 0 0-.005-1.488l.004.027c-.226-1.093-1.291-2.159-2.384-2.384-.163-.034-.861-.058-1.653-.058-1.221.002-1.394.013-1.584.101zm2.916 2.394a.801.801 0 0 1-.001 1.357l-.003.002c-.152.094-.269.114-.693.117l-.511.003-.016-.744a6.666 6.666 0 0 1 .016-.845l-.002.024c.048-.125.976-.058 1.21.086zm-2.916 9.608a1.34 1.34 0 0 0-.357.251c-.315.336-.31.282-.309 3.5.002 2.756.008 2.962.101 3.162.124.263.335.468.596.581l.008.003c.318.133 2.234.117 2.783-.022a3.934 3.934 0 0 0 2.748-2.728l.007-.028c.144-.558.144-1.403 0-1.962a3.93 3.93 0 0 0-2.727-2.748l-.027-.007c-.346-.088-.589-.106-1.509-.104-.955.002-1.127.014-1.312.101zm2.428 2.415c.517.221.864.754.864 1.327 0 .752-.594 1.389-1.344 1.447l-.24.018-.014-1.413a23.29 23.29 0 0 1 .013-1.525l-.002.045c.035-.09.395-.038.723.102z"/>
    </symbol>
    <symbol id="icon-AC" viewBox="0 0 32 32">
      <path d="M14.411 3.282c-2.717.477-4.777 2.511-5.318 5.251-.05.248-.078.576-.066.73.056.675.781 1.066 1.415.76.336-.163.475-.411.634-1.122.229-1.034.584-1.719 1.227-2.372.859-.874 2.004-1.333 3.273-1.319h.043a4.1 4.1 0 0 1 1.927.478l-.022-.011c1.716.835 2.727 2.769 2.407 4.603-.306 1.754-1.445 3.018-3.218 3.575l-.469.147-15.584.053-.216.144a.983.983 0 0 0 .1 1.689l.005.003.237.115 15.565-.03.626-.17c2.684-.727 4.574-2.922 4.846-5.631a6.195 6.195 0 0 0-.63-3.358l.016.036c-.884-1.789-2.516-3.094-4.476-3.516l-.043-.008c-.552-.12-1.722-.144-2.277-.046zm11.967 8.812c-2.079.282-3.77 1.788-4.244 3.777-.142.602-.16 1.323-.037 1.554a1.034 1.034 0 0 0 1.484.364l-.004.002c.274-.19.408-.488.45-.999.061-.722.293-1.25.781-1.77.552-.592 1.179-.899 1.97-.968 1.394-.12 2.769.848 3.117 2.197.394 1.527-.479 3.047-2.05 3.573-.282.094-.85.101-13.735.126-12.614.024-13.454.032-13.612.118-.643.352-.656 1.269-.024 1.698l.194.13 10.188.027c7.272.019 10.236.045 10.349.086.685.253 1.237.714 1.511 1.258.751 1.496-.178 3.265-1.853 3.524-1.314.203-2.543-.661-2.847-2.004-.098-.432-.288-.704-.592-.842-.653-.298-1.419.166-1.419.859 0 .546.328 1.442.759 2.071.576.842 1.568 1.522 2.629 1.802.568.15 1.724.138 2.293-.026 2.749-.784 4.102-3.738 2.852-6.232l-.245-.49 1.736-.021c1.669-.021 1.759-.027 2.255-.16a5.034 5.034 0 0 0 3.537-3.404l.009-.035c.13-.426.144-.547.144-1.322 0-.778-.014-.896-.147-1.335a5.02 5.02 0 0 0-3.934-3.516l-.03-.004a5.972 5.972 0 0 0-1.509-.039l.025-.002z"/>
    </symbol>
    <symbol id="icon-kitchen" viewBox="0 0 32 32">
      <path d="M24.832 2.927c-.275.126-1.941 1.826-2.703 2.759-2.421 2.964-3.724 5.667-4.306 8.93-.208 1.171-.28 2.068-.31 3.846-.032 1.904-.021 1.997.264 2.324.336.382.173.363 3.428.392l2.933.027v1.6l-.269.034a1.101 1.101 0 0 0-.728.348l-.001.001c-.307.323-.309.342-.309 2.829.002 2.108.01 2.3.101 2.496.069.137.153.255.252.357.293.274.466.309 1.5.309 1.047-.002 1.231-.045 1.519-.352.334-.357.31.645.309-12.834-.002-11.844-.005-12.292-.101-12.498a1.214 1.214 0 0 0-1.585-.564l.008-.003zM6.161 4.26a1.254 1.254 0 0 0-.612.678l-.003.009c-.042.139-.053.979-.038 2.762.022 2.828.018 2.789.398 3.692.575 1.362 1.935 2.557 3.322 2.921l.24.062.026 7.011c.03 7.733.002 7.139.355 7.475a1.229 1.229 0 0 0 1.639-.001l-.001.001c.354-.336.326.258.355-7.475l.027-7.011.24-.062c1.386-.363 2.746-1.559 3.321-2.921.381-.903.378-.864.4-3.692.014-1.783.002-2.623-.04-2.762a1.247 1.247 0 0 0-.606-.683l-.007-.003a1.275 1.275 0 0 0-1.328.211l.002-.001c-.336.32-.325.235-.358 2.919-.035 2.693-.038 2.721-.381 3.324-.254.45-.987 1.13-1.215 1.13-.037 0-.054-1.122-.054-3.389 0-2.943-.011-3.415-.083-3.586-.392-.941-1.788-.941-2.181 0-.072.171-.083.643-.083 3.586 0 2.268-.018 3.389-.054 3.389-.227 0-.959-.68-1.215-1.13-.344-.607-.347-.631-.381-3.324-.032-2.684-.022-2.599-.358-2.919a1.27 1.27 0 0 0-1.333-.207l.008-.003zm17.98 14.504c-.021.051-.496.067-2.132.067-1.159 0-2.114-.019-2.125-.04-.035-.072.059-2.047.12-2.546.197-1.595.472-2.764.941-3.996.618-1.623 1.615-3.306 2.845-4.804l.347-.424.014 5.838c.008 3.212.002 5.868-.011 5.905z"/>
    </symbol>
    <symbol id="icon-beds" viewBox="0 0 32 32">
      <path d="M7.528 5.017c-1.167.306-2.215 1.36-2.514 2.532-.101.394-.106.592-.106 3.605v3.189l-.278.141c-.997.499-1.885 1.477-2.351 2.586-.381.906-.374.811-.397 5.171-.024 4.334-.035 4.172.317 4.532.243.25.445.336.784.339l.036.001c.295 0 .563-.115.762-.302l-.001.001c.222-.202.293-.41.328-.96.029-.464.048-.539.155-.627.118-.096.487-.099 11.74-.099s11.621.003 11.74.099c.107.088.126.163.155.627.035.55.106.759.328.96.227.206.485.304.797.301l.046.001a.967.967 0 0 0 .737-.339l.001-.001c.352-.36.341-.2.317-4.534-.024-4.356-.018-4.266-.397-5.169-.466-1.109-1.354-2.087-2.351-2.586l-.278-.141v-3.189c0-3.013-.005-3.212-.106-3.606-.302-1.183-1.352-2.232-2.535-2.535-.408-.104-.59-.106-8.477-.102-7.79.002-8.072.005-8.453.106zM24.07 7.246c.299.147.655.531.743.802.074.226.133 3.444.062 3.413a32.968 32.968 0 0 1-1.172-.545l.674.303a3.286 3.286 0 0 0-.781-.274l-.023-.004c-.557-.093-5.793-.078-6.244.018a3.379 3.379 0 0 0-1.135.503l.011-.007-.202.133-.254-.163a3.157 3.157 0 0 0-1.167-.483l-.02-.003c-.479-.077-5.667-.075-6.131.003a3.473 3.473 0 0 0-.823.287l.02-.009-.495.24c-.059.027-.048-2.868.014-3.197a1.43 1.43 0 0 1 1.014-1.089l.01-.002c.226-.054 1.836-.066 7.963-.059l7.681.01.253.125zm-9.694 5.976c.248.114.315.184.427.451l.082.197H8.111l.056-.147c.106-.228.28-.41.496-.522l.006-.003c.126-.056.715-.072 2.826-.072 2.468 0 2.684.006 2.881.096zm8.95-.026c.229.111.408.295.511.52l.003.007.056.147h-6.774l.082-.197c.112-.267.179-.338.427-.451.197-.09.416-.098 2.868-.098 2.14-.002 2.69.013 2.828.072zm2.202 2.972c.703.126 1.5.666 1.893 1.28.096.149.235.43.31.626l.139.357.016 2.226.018 2.228H4.107v-2.044c0-1.227.022-2.17.058-2.36.205-1.133 1.239-2.14 2.396-2.333.074-.013 4.3-.026 9.392-.03 6.404-.005 9.355.011 9.575.051z"/>
    </symbol>
    <symbol id="icon-TV" viewBox="0 0 32 32">
      <path d="M9.543 1.241c-.28.189-.422.439-.422.744 0 .144.027.314.059.379s1.093 1.152 2.356 2.419l2.298 2.304-6.554.038-.51.139a4.865 4.865 0 0 0-2.291 1.355l-.002.002a4.808 4.808 0 0 0-1.208 2.116l-.008.034-.141.51v5.681c0 5.34.006 5.706.099 6.102.414 1.767 1.658 3.092 3.421 3.642l.48.15h17.762l.48-.15c1.953-.609 3.263-2.174 3.492-4.171.043-.378.056-2.096.042-5.894-.019-5.339-.02-5.363-.138-5.809-.133-.503-.444-1.202-.707-1.588-.639-.936-1.686-1.673-2.819-1.98l-.51-.139-6.554-.038 2.298-2.304c1.263-1.267 2.324-2.355 2.356-2.419s.059-.235.059-.379v-.003a.862.862 0 0 0-.862-.862h-.003c-.144 0-.314.027-.379.059-.064.032-1.358 1.298-2.876 2.813l-2.76 2.754-2.76-2.754c-1.518-1.515-2.812-2.781-2.876-2.813-.205-.104-.622-.072-.822.062zM24.744 8.99c1.07.252 2.018 1.2 2.27 2.27.122.515.122 11.016.001 11.491-.144.565-.383.978-.821 1.417a2.996 2.996 0 0 1-1.346.824l-.021.005c-.302.094-.722.098-8.825.098s-8.523-.004-8.825-.098c-1.094-.337-1.916-1.182-2.188-2.246-.121-.475-.121-10.976.001-11.491.25-1.064 1.19-2.012 2.245-2.268.485-.117 17.012-.119 17.509-.002zm-13.17 20.231a.966.966 0 0 0-.458.627l-.001.006c-.077.411.254.934.634 1.002.095.017 2.068.024 4.386.016l4.215-.016.179-.128c.201-.143.378-.483.378-.725s-.177-.582-.378-.725l-.179-.128-4.295-.014c-4.102-.014-4.302-.01-4.481.085z"/>
    </symbol>
    <symbol id="icon-CD" viewBox="0 0 32 32">
      <path d="M14.723 2.86c-1.77.213-3.034.578-4.508 1.298-1.447.709-2.344 1.354-3.524 2.533s-1.824 2.077-2.533 3.524a11.645 11.645 0 0 0-.939 2.505l-.018.083c-.296 1.189-.347 1.66-.347 3.201s.051 2.012.347 3.201c.23.928.496 1.645.957 2.588.709 1.447 1.354 2.344 2.533 3.524s2.077 1.824 3.524 2.533c.741.385 1.603.713 2.505.939l.083.018c1.189.296 1.66.347 3.201.347s2.012-.051 3.201-.347a13.666 13.666 0 0 0 4.913-2.388l-.033.024c.55-.414 1.943-1.807 2.357-2.357a13.463 13.463 0 0 0 2.602-6.002l.011-.079c.077-.464.098-.883.098-2 0-1.541-.051-2.012-.347-3.201a13.666 13.666 0 0 0-2.388-4.913l.024.033c-.414-.55-1.807-1.943-2.357-2.357-1.464-1.104-3.141-1.924-4.801-2.346-1.095-.28-1.621-.342-3.041-.362a27.312 27.312 0 0 0-1.562.004l.042-.001zm2.828 2.456c3.373.474 6.372 2.583 7.995 5.627a10.735 10.735 0 0 1 1.25 5.064c0 .996-.134 1.961-.385 2.878l.018-.076c-.906 3.311-3.277 5.98-6.42 7.224a10.75 10.75 0 0 1-4.019.765c-.926 0-1.825-.115-2.683-.331l.076.016a10.88 10.88 0 0 1-7.061-5.695l-.028-.063a10.111 10.111 0 0 1-1.076-4.574l.001-.155v.008l-.001-.105c0-2.203.679-4.248 1.838-5.936l-.023.036c1.961-2.907 5.242-4.794 8.963-4.794.549 0 1.088.041 1.615.12l-.059-.007zm-2.399 2.207a8.532 8.532 0 0 0-6.874 4.884l-.022.052c-.455.991-.647 1.759-.744 2.967l-.064.784.157.302c.095.188.226.345.386.467l.003.002c.214.155.264.168.671.168.4 0 .461-.014.666-.157.374-.259.493-.525.541-1.221.115-1.637.666-2.919 1.727-4.03 1.074-1.122 2.479-1.752 4.175-1.872.696-.048.962-.166 1.221-.541.142-.205.157-.266.157-.661s-.014-.458-.157-.663c-.235-.339-.547-.499-1.01-.515l-.14-.001c-.244 0-.485.012-.722.036l.03-.002zm.069 4.022c-1.781.339-3.127 1.579-3.599 3.311-.163.603-.165 1.685-.002 2.295a4.684 4.684 0 0 0 3.203 3.228l.033.008c.605.162 1.69.162 2.295 0a4.7 4.7 0 0 0 2.894-2.354l.012-.026c.338-.674.443-1.152.443-2.004 0-.566-.024-.811-.114-1.147-.414-1.547-1.711-2.841-3.236-3.231-.55-.139-1.427-.176-1.93-.08zm1.336 2.405c1.259.328 1.924 1.759 1.37 2.945a2.135 2.135 0 0 1-2.285 1.203l.012.002c-1.247-.214-2.055-1.488-1.7-2.682a2.143 2.143 0 0 1 2.602-1.467z"/>
    </symbol>
    <symbol id="icon-radio" viewBox="0 0 32 32">
      <path d="M13.95 4.366 8.189 7.079l-.555.062c-1.904.214-3.109.709-4.102 1.68-1.027 1.008-1.504 2.197-1.76 4.402-.08.677-.091 1.394-.091 5.447s.011 4.769.091 5.446c.254 2.183.704 3.325 1.716 4.358 1.008 1.027 2.197 1.504 4.402 1.76.698.082 1.549.091 8.114.091s7.416-.01 8.114-.091c2.205-.256 3.394-.733 4.402-1.76 1.011-1.032 1.461-2.175 1.716-4.358.08-.677.091-1.392.091-5.446s-.011-4.771-.091-5.447c-.256-2.205-.733-3.394-1.76-4.402-1.018-.997-2.16-1.453-4.278-1.709-.576-.069-1.586-.088-5.759-.109-2.839-.013-5.041-.043-5.014-.069.026-.026 1.65-.802 3.61-1.725 1.96-.922 3.612-1.722 3.673-1.776.192-.196.31-.464.31-.76v-.006c0-.599-.419-1.013-1.024-1.011-.261 0-.719.205-6.043 2.711zm7.867 4.701c1.768.053 2.421.11 3.201.277 1.786.384 2.604 1.208 2.983 3.007.182.859.211 1.258.278 3.852a79.576 79.576 0 0 1 0 4.934 72.215 72.215 0 0 1-.125 3.095l.01-.201c-.12 1.011-.397 1.964-.725 2.493-.571.927-1.65 1.437-3.461 1.64-.912.102-3.676.155-7.974.155s-7.062-.053-7.974-.155c-2.58-.29-3.626-1.138-4.05-3.281-.154-.773-.186-1.253-.253-3.748a77.787 77.787 0 0 1 .004-5.06l-.003.126c.037-1.357.09-2.66.117-2.893.267-2.25.954-3.281 2.532-3.806.799-.266 1.744-.381 3.575-.434 1.981-.056 9.999-.059 11.868-.003zM8.445 11.069C7.19 11.341 6 12.546 5.731 13.814c-.096.45-.094 1.264.002 1.72.27 1.275 1.467 2.469 2.746 2.74.525.11 14.536.112 15.049.002 1.283-.277 2.476-1.466 2.746-2.741a5.184 5.184 0 0 0-.005-1.761l.005.031c-.27-1.275-1.466-2.468-2.746-2.74-.509-.107-14.587-.104-15.083.005zm14.867 2.113a1.623 1.623 0 0 1 .01 2.97l-.01.004c-.282.131-.334.138-1.28.139l-.987.002-.027-.671c-.024-.603-.04-.691-.16-.867-.158-.234-.579-.463-.853-.463s-.695.229-.853.463c-.12.176-.136.264-.16.867l-.027.671H8.99l-.294-.139c-1.055-.501-1.307-1.828-.501-2.626.228-.234.526-.399.861-.459l.01-.001c.134-.024 3.329-.038 7.099-.035l6.854.008.294.139zm-13.95 6.511c-.355.067-.954.362-1.269.626-.763.635-1.104 1.362-1.104 2.352 0 .775.195 1.354.635 1.882 1.272 1.532 3.487 1.536 4.748.008.256-.309.506-.816.584-1.186.082-.382.075-1.152-.013-1.479-.414-1.549-1.973-2.509-3.582-2.204zm7.521 2.054a.982.982 0 0 0-.56.926v-.002c0 .416.187.73.544.912.189.096.371.101 3.804.101 3.431 0 3.613-.005 3.802-.101a.964.964 0 0 0 .545-.867l-.001-.048v.002l.001-.046c0-.38-.22-.709-.54-.865l-.006-.003c-.189-.096-.368-.101-3.814-.098-3.196.002-3.636.011-3.777.086zm-6.551.02c.36.151.609.498.616.903v.001c0 .282-.096.496-.314.703-.598.565-1.578.128-1.578-.703 0-.283.096-.496.314-.704a.924.924 0 0 1 .968-.198l-.006-.002z"/>
    </symbol>
    <symbol id="icon-shower" viewBox="0 0 32 32">
      <path d="M5.201 4.346c-.029.01-.117.033-.196.05-.186.041-.452.268-.561.478-.112.215-.113.705-.002.914.047.088.722.794 1.499 1.57l1.414 1.41-.175.243c-.658.915-1.149 2.153-1.315 3.314-.084.589-.037 2.064.083 2.609.201.918.631 1.938 1.123 2.665l.235.349-.74.746c-.407.411-.771.807-.808.88-.088.173-.088.683.001.854.101.195.273.372.455.467.208.108.701.107.907-.002.088-.047 3.225-3.153 6.971-6.903 4.929-4.933 6.823-6.862 6.853-6.978.189-.728-.235-1.324-.942-1.324-.162 0-.354.03-.427.068s-.469.401-.88.808l-.746.74-.349-.235c-.727-.492-1.747-.922-2.665-1.123-.545-.12-2.02-.167-2.609-.083-1.161.166-2.399.657-3.314 1.315l-.243.175-1.41-1.414c-.776-.777-1.47-1.445-1.544-1.484-.14-.074-.523-.143-.613-.111zm9.118 3.521c.233.041.593.13.8.198.412.133 1.319.577 1.346.659.024.073-7.695 7.778-7.755 7.741-.078-.048-.527-.984-.651-1.357-.421-1.26-.331-2.824.23-4.04 1.066-2.308 3.573-3.639 6.03-3.201zm6.884 4.479c-.029.01-.117.033-.196.05-.186.041-.452.268-.561.478-.111.213-.113.704-.003.914.166.318.551.56.893.56s.728-.242.894-.56c.101-.194.11-.697.015-.881a1.13 1.13 0 0 0-.424-.448l-.005-.003c-.141-.073-.524-.142-.613-.11zm5.333 1.334a1.71 1.71 0 0 1-.181.048l-.015.003c-.185.04-.452.267-.561.477-.111.214-.112.705-.003.914.166.318.552.56.894.56s.727-.242.893-.56c.102-.194.11-.697.016-.88a1.14 1.14 0 0 0-.424-.449l-.005-.003c-.142-.073-.525-.141-.614-.11zm-9.334 2.667c-.029.01-.117.033-.196.05-.186.041-.452.268-.561.478-.111.213-.113.704-.003.914.166.318.551.56.893.56s.728-.242.894-.56c.101-.194.11-.697.015-.881a1.13 1.13 0 0 0-.424-.448l-.005-.003c-.141-.073-.524-.142-.613-.11zm5.334 1.333a1.71 1.71 0 0 1-.181.048l-.015.003c-.185.04-.452.267-.561.477-.111.214-.112.705-.003.914.166.318.552.56.894.56s.727-.242.893-.56c.102-.194.11-.697.016-.88a1.14 1.14 0 0 0-.424-.449l-.005-.003c-.142-.073-.525-.141-.614-.11zm-9.334 2.667c-.029.01-.117.033-.196.05-.186.041-.452.268-.561.478-.111.213-.113.704-.003.914.166.318.551.56.893.56s.728-.242.894-.56c.101-.194.11-.697.015-.881a1.13 1.13 0 0 0-.424-.448l-.005-.003c-.141-.073-.524-.142-.613-.11zm5.333 1.334a1.71 1.71 0 0 1-.181.048l-.015.003c-.185.04-.452.267-.561.477-.111.214-.112.705-.003.914.166.318.552.56.894.56s.727-.242.893-.56c.102-.194.11-.697.016-.88a1.14 1.14 0 0 0-.424-.449l-.005-.003c-.142-.073-.525-.141-.614-.11zm-4 4a1.71 1.71 0 0 1-.181.048l-.015.003c-.185.04-.452.267-.561.477-.111.214-.112.705-.003.914.166.318.552.56.894.56s.727-.242.893-.56c.102-.194.11-.697.016-.88a1.14 1.14 0 0 0-.424-.449l-.005-.003c-.142-.073-.525-.141-.614-.11z"/>
    </symbol>
    <symbol id="icon-toilet" viewBox="0 0 32 32">
      <path d="M7.334 4.079c-1.216.267-2.277 1.197-3.135 2.749-.629 1.136-1.147 2.932-1.408 4.887-.115.864-.133 3.492-.029 4.34.189 1.549.547 3.037 1 4.166.746 1.855 1.906 3.165 3.194 3.609.382.131.506.147 1.072.144.579-.003.68-.019 1.072-.166.506-.19.939-.458 1.306-.8l.262-.245.002 2.074c.002 1.594.019 2.122.074 2.276.176.483.612.831 1.134.877h.005c.288.027.442-.016 2.215-.603l1.904-.632 1.885.626c1.037.344 1.962.626 2.056.626.093 0 1.045-.146 2.114-.325l1.946-.325 1.983.331c1.415.235 2.052.322 2.223.298a1.347 1.347 0 0 0 1.068-.941l.002-.009c.048-.174.059-1.975.043-7.483-.018-6.403-.03-7.328-.107-7.869-.219-1.522-.518-2.741-.928-3.788-.456-1.163-.971-1.98-1.719-2.725-.437-.434-.59-.549-1.019-.762-.877-.432-.234-.405-9.575-.402-6.675.003-8.384.018-8.642.074zm.997 2.701c.973.496 1.86 2.559 2.21 5.142.133.97.133 3.191 0 4.161-.394 2.906-1.522 5.228-2.54 5.228s-2.146-2.322-2.54-5.228c-.133-.97-.133-3.191 0-4.161.349-2.57 1.229-4.63 2.197-5.14.267-.141.402-.141.672-.002zm16.003 0c.792.403 1.618 2.031 2.015 3.969.293 1.431.286 1.282.309 8.042.018 6.019.014 6.281-.077 6.28-.053 0-.589-.083-1.189-.186a13.891 13.891 0 0 0-1.297-.182l-.063-.005c-.147 0-1.085.134-2.085.299l-1.816.302-1.948-.648c-1.277-.424-2.026-.647-2.176-.647-.178 0-1.876.514-2.601.786-.05.018-.069-1.395-.085-6.235-.018-5.529-.03-6.334-.11-6.894-.264-1.842-.658-3.271-1.231-4.46.131.314.053.152-.026-.01l-.21-.482c-.01-.022 2.77-.04 6.177-.04 6.184 0 6.195 0 6.412.112zM7.517 11.535c-.28.216-.538.671-.698 1.239-.176.623-.176 1.839 0 2.453.551 1.919 1.815 1.919 2.365 0 .176-.615.176-1.831 0-2.453-.256-.903-.682-1.411-1.183-1.411-.21 0-.301.032-.485.173z"/>
    </symbol>
    <symbol id="icon-freezer" viewBox="0 0 32 32">
      <path d="M7.974 2.028c-1.043.208-1.941 1.029-2.268 2.076-.106.338-.107.475-.107 11.069.002 11.541-.011 11.005.262 11.543.282.55.863 1.143 1.346 1.371.17.08.198.122.221.318.062.562.52 1.168 1.093 1.45.306.15.314.15 1.52.168 1.376.019 1.592-.018 2.039-.333a1.96 1.96 0 0 0 .728-.946l.115-.312h6.171l.035.146c.122.504.584 1.053 1.087 1.29.291.136.304.138 1.628.138s1.336-.002 1.628-.138c.558-.262.97-.784 1.095-1.381.058-.282.072-.299.376-.477.639-.371 1.162-1.043 1.391-1.792.094-.306.099-.783.099-10.988 0-8.864-.013-10.719-.074-10.962-.264-1.059-1.251-2.023-2.29-2.236-.334-.069-15.749-.074-16.094-.005zm16.002 2.206c.125.104.226.232.299.376l.003.007c.096.218.099.398.086 3.847l-.013 3.618H7.653V4.713l.147-.221c.093-.133.208-.242.342-.325l.005-.003c.197-.104.309-.106 7.912-.094l7.712.011.203.154zM9.895 5.595a.988.988 0 0 0-.527.545l-.002.007c-.07.168-.083.535-.083 2.423 0 2.167.003 2.232.114 2.461a.98.98 0 0 0 .876.545l.04-.001h-.002.027c.156 0 .305-.028.442-.08l-.009.003c.246-.151.434-.377.533-.646l.003-.009c.074-.27.075-4.345 0-4.614-.162-.584-.85-.893-1.411-.635zm14.457 14.332v5.766l-.144.216c-.097.138-.223.25-.37.327l-.006.003-.234.114h-7.587c-6.254 0-7.616-.013-7.758-.072a1.066 1.066 0 0 1-.564-.642l-.002-.008c-.064-.258-.086-11.396-.022-11.46.019-.019 3.783-.029 8.362-.021l8.326.013v5.764zm-14.294-5.518a1.03 1.03 0 0 0-.671.541l-.003.006c-.093.203-.101.386-.101 2.46 0 2.06.008 2.258.099 2.456.342.754 1.383.808 1.826.094l.126-.203v-4.641l-.141-.24a1.036 1.036 0 0 0-1.144-.472l.007-.002z"/>
    </symbol>
    <symbol id="icon-hob" viewBox="0 0 32 32">
      <path d="M3.226 5.59a2.64 2.64 0 0 0-1.501 1.322l-.007.015-.198.402v18.68l.2.405c.264.535.671.941 1.203 1.203l.405.2h25.349l.405-.2a2.594 2.594 0 0 0 1.203-1.203l.2-.405V7.329l-.2-.405a2.628 2.628 0 0 0-1.188-1.197l-.015-.007-.405-.2-12.591-.011c-11.839-.011-12.609-.006-12.86.08zm7.576 11.08v8.802l-3.396.013c-3.036.013-3.405.005-3.481-.07-.077-.075-.085-.925-.085-8.744 0-7.821.008-8.669.085-8.746.075-.075.445-.083 3.481-.07l3.396.014v8.802zm17.28-8.745c.075.077.083.943.083 8.746 0 7.809-.008 8.669-.083 8.744-.077.075-.81.083-7.481.07l-7.398-.013-.014-8.749c-.006-4.812-.002-8.778.013-8.815.019-.053 1.551-.067 7.411-.067 6.643 0 7.395.008 7.47.083zm-3.957 1.68a1.315 1.315 0 0 0-.376.307l-.002.002c-.173.221-7.862 11.119-8.083 11.455a1.14 1.14 0 0 0 .17 1.462l.001.001c.499.485 1.165.498 1.637.035.202-.198 7.939-11.117 8.246-11.639.098-.165.126-.291.126-.559l.001-.042c0-.395-.201-.743-.507-.946l-.004-.003c-.309-.213-.869-.248-1.21-.074zm-17.183.589c-.261.078-.68.52-.754.792-.04.149-.054.754-.043 1.815l.016 1.592.162.23c.088.126.264.302.39.39.206.146.272.162.621.162s.416-.016.621-.162c.126-.088.302-.264.392-.39l.162-.23v-3.449l-.162-.23c-.251-.355-.538-.53-.911-.555a1.705 1.705 0 0 0-.506.038l.012-.002zm-.213 6.64c-.488.246-.73.691-.691 1.275.017.43.251.801.595 1.01l.005.003c.235.146.306.162.696.162.392 0 .463-.016.696-.162.172-.109.313-.251.419-.417l.003-.005c.146-.235.162-.306.162-.696s-.016-.461-.162-.696c-.237-.386-.578-.578-1.059-.6-.326-.016-.418.002-.664.126zm0 4c-.488.246-.73.691-.691 1.275.017.43.251.801.595 1.01l.005.003c.235.146.306.162.696.162.392 0 .463-.016.696-.162.172-.109.313-.251.419-.417l.003-.005c.146-.235.162-.306.162-.696s-.016-.461-.162-.696c-.237-.386-.578-.578-1.059-.6-.326-.016-.418.002-.664.126z"/>
    </symbol>
    <symbol id="icon-microwave" viewBox="0 0 32 32">
      <path d="M1.879 4.643c-.762.11-1.506.776-1.757 1.572-.098.314-.098 19.265 0 19.578.259.821.989 1.458 1.805 1.575.454.066 27.698.066 28.153 0 .816-.117 1.546-.754 1.805-1.575.098-.314.098-19.265 0-19.578-.259-.821-.989-1.458-1.805-1.575-.413-.061-27.791-.058-28.201.003zm27.86 11.36v9.149H2.268l-.014-9.096c-.008-5.003-.002-9.125.011-9.162.021-.053 2.799-.064 13.75-.053l13.724.013v9.149zM6.358 9.232c-.837.166-1.573.955-1.719 1.842-.069.419-.069 9.439 0 9.858.15.915.888 1.684 1.773 1.847.19.035 2.613.05 6.929.04l6.635-.014.386-.181a2.273 2.273 0 0 0 1.299-1.757c.059-.464.059-9.263 0-9.727a2.28 2.28 0 0 0-1.286-1.751l-.014-.006-.386-.181-6.694-.008c-3.682-.005-6.798.013-6.925.038zm18.634 1.095a3.036 3.036 0 0 1-.193.045l-.036.006c-.171.037-.547.392-.634.595-.168.403-.05.994.258 1.28.253.237.469.282 1.325.282.877 0 1.072-.045 1.351-.309.232-.221.32-.432.325-.784l.001-.045a1.06 1.06 0 0 0-.535-.922l-.005-.003c-.234-.136-.29-.146-.999-.158a9.301 9.301 0 0 0-.884.015l.026-.001zm-5.521 5.676v4.588H6.829v-9.176h12.642v4.588zm5.183-.982c-.426.214-.57.463-.57.983 0 .526.146.773.581.986.286.141.31.144 1.146.126.85-.019.851-.019 1.083-.181a1.121 1.121 0 0 0 .004-1.86l-.004-.003-.232-.162-.863-.018c-.845-.016-.867-.013-1.146.128z"/>
    </symbol>
    <symbol id="icon-gas" viewBox="0 0 32 32">
      <path d="M18.671 1.732c-1.842.543-3.922 1.938-5.318 3.57a11.615 11.615 0 0 0-2.827 7.13l-.001.024c-.061 1.575.17 2.874.837 4.694.138.376.118.6-.075.851-.269.355-.787.459-1.226.246-.253-.123-.647-.594-1.042-1.243-1.127-1.855-1.319-4.354-.49-6.385.09-.218.155-.405.146-.413-.045-.046-.875.733-1.277 1.195-1.965 2.269-2.917 5.391-2.493 8.174.254 1.671 1.013 3.604 1.85 4.715a11.401 11.401 0 0 0 6.111 4.101l.079.018c.941.242 1.701.339 2.925.379 4.855.157 8.72-1.858 10.455-5.451a9.646 9.646 0 0 0 .754-2.293c.147-.787.134-2.308-.024-3.049-.254-1.192-.621-2.005-1.466-3.263-.791-1.176-1.501-1.856-3.196-3.057-1.221-.864-1.584-1.155-2.106-1.687-1.997-2.024-2.565-5.305-1.37-7.906.099-.218.176-.413.168-.434-.008-.019-.195.018-.414.082zm-1.61 12.311a8.132 8.132 0 0 0 1.029 1.451c.238.261 1.599 1.458 2.052 1.805.222.171.77.893.955 1.263.302.6.418 1.152.384 1.842a4.082 4.082 0 0 1-.504 1.863l.011-.021c-.55 1.066-1.394 1.744-2.669 2.154-1.112.355-2.109.285-3.245-.229-.464-.211-1.413-.863-1.416-.973 0-.019.069-.048.155-.066.334-.066 1.031-.373 1.402-.616a4.315 4.315 0 0 0 1.649-2.021l.01-.029c.157-.41.166-.479.165-1.13-.003-.623-.022-.767-.197-1.424-.32-1.205-.381-1.592-.376-2.416.002-.578.027-.837.112-1.146.12-.44.21-.695.246-.695.013 0 .118.174.237.387z"/>
    </symbol>
    <symbol id="icon-water" viewBox="0 0 32 32">
      <path d="M15.595 2.346a2.269 2.269 0 0 0-.903.467l.003-.003a21.94 21.94 0 0 0-.885 1.031c-2.493 3.028-4.524 6.076-5.934 8.909-1.043 2.096-1.591 3.658-1.936 5.521-.078.429-.098.792-.096 1.866.002 1.469.072 2.034.394 3.183.986 3.509 3.588 5.897 7.224 6.632.93.187 1.483.24 2.541.24.514 0 1.149-.024 1.413-.054 4.966-.565 8.184-3.81 8.728-8.802.078-.723.034-2.432-.082-3.065-.33-1.82-.896-3.436-1.933-5.521-1.413-2.841-3.442-5.884-5.94-8.915a16.96 16.96 0 0 0-.95-1.089l.007.007c-.405-.341-1.125-.517-1.652-.406zm.827 3.105c3.18 3.903 5.667 7.998 6.713 11.06.413 1.205.595 2.133.64 3.234.078 1.973-.408 3.82-1.355 5.153a7.23 7.23 0 0 1-2.169 1.931l-.035.018c-1.74.96-4.522 1.229-6.747.651-1.868-.486-3.349-1.594-4.246-3.175-.831-1.464-1.181-3.532-.928-5.462.344-2.625 1.991-6.097 4.798-10.112.903-1.293 2.818-3.782 2.909-3.78.014 0 .203.218.419.482zm4.544 14.004c-.437.229-.59.479-.655 1.064-.086.779-.146 1.016-.373 1.469a2.98 2.98 0 0 1-.595.815l-.001.001c-.626.632-1.215.901-2.16.991-.674.064-.944.195-1.181.568a1.13 1.13 0 0 0 .098 1.408l-.001-.001c.267.31.533.419 1.031.421 2.922.008 5.507-2.548 5.556-5.494.008-.424-.01-.541-.104-.72a1.176 1.176 0 0 0-.998-.651h-.003a.854.854 0 0 0-.619.132l.003-.002z"/>
    </symbol>
    <!-- Camper types -->
    <symbol id="icon-panelTruck" viewBox="0 0 46 32">
      <path d="M1.502 3.539c-.689.246-1.162.712-1.38 1.36C.012 5.226 0 6.378 0 16.306c0 10.951.001 11.047.157 11.462.183.489.788 1.093 1.261 1.26.207.073.831.115 2.061.137l1.762.032.256.504C6.182 31.052 7.749 32 9.3 32.003c1.526.003 3.118-.966 3.744-2.28l.253-.529h19.126l.253.529c.626 1.314 2.218 2.284 3.744 2.28a4.398 4.398 0 0 0 2.733-.986l-.008.006c.411-.326 1.012-1.103 1.201-1.557l.112-.27 1.774-.032c1.238-.022 1.863-.064 2.07-.137.473-.167 1.078-.77 1.261-1.26.151-.403.157-.568.157-4.626-.001-2.628-.03-4.311-.079-4.486a2.853 2.853 0 0 0-.33-.658l.006.01c-.215-.321-.513-.537-2.379-1.716.08.017-.678-.463-1.44-.939l-.885-.516c-.666-.377-.684-.394-.793-.778-.061-.209-.578-2.146-1.152-4.306-.574-2.158-1.128-4.106-1.232-4.327-.431-.918-1.5-1.73-2.528-1.92-.265-.049-6.185-.075-16.764-.073-13.555.002-16.403.021-16.641.106zm25.244 4.214c.001 2.223.026 2.996.112 3.4.515 2.429 2.261 4.254 4.725 4.939.589.163.752.171 4.645.197l4.036.026 1.888 1.182c1.039.65 1.94 1.256 2.004 1.346.095.136.114.496.114 2.09v1.926h-.838v1.143h.838v1.634c0 1.616-.001 1.636-.183 1.847l-.184.214-3.214.047v-.331c0-1.617-1.46-3.383-3.165-3.828-.579-.151-1.602-.149-2.196.005-1.457.376-2.676 1.616-3.057 3.115a3.663 3.663 0 0 0-.116.733l-.001.01v.289H13.563v-.289c0-.875-.505-1.969-1.257-2.721-.872-.872-1.798-1.257-3.024-1.257-1.214 0-2.141.385-3.004 1.249-.774.774-1.249 1.8-1.249 2.695v.331l-3.214-.047-.184-.214c-.182-.211-.183-.231-.183-1.847v-1.634h.838V22.86h-.838V5.322l.223-.222.222-.223h24.852l.001 2.876zm8.434-2.667c.408.218.801.624.971 1.001.073.163.64 2.196 1.258 4.516l1.125 4.219-2.924.019c-3.257.023-3.58-.01-4.548-.455a5.045 5.045 0 0 1-2.705-3.148l-.009-.035c-.146-.529-.157-.775-.157-3.451V4.871l3.333.023c3.287.022 3.339.024 3.654.192zM3.163 6.168c-.119.06-.22.138-.304.231l-.001.001c-.149.166-.152.277-.152 4.464v4.296l.211.21.21.211h22.32l.21-.211.211-.21V6.556l-.211-.21-.21-.211-11.066-.015c-6.086-.008-11.135.014-11.218.048zm14.362 4.691v3.238H4.191V7.621h13.334v3.238zm6.858 0v3.238H19.05V7.621h5.333v3.238zM9.796 24.924a2.925 2.925 0 0 1 2.046 1.548l.008.017c.206.407.226.517.226 1.21.001.707-.017.8-.247 1.268a2.766 2.766 0 0 1-2.338 1.572h-.007c-1.201.077-2.246-.531-2.782-1.622-.165-.335-.187-.482-.187-1.22 0-.77.017-.871.215-1.245a2.916 2.916 0 0 1 1.937-1.503l.019-.004c.542-.12.575-.121 1.11-.023zm27.124 0c.922.169 1.679.76 2.073 1.562l.008.017c.179.384.203.526.203 1.234 0 .694-.025.85-.186 1.181-.278.566-.842 1.125-1.397 1.381-.417.193-.561.219-1.198.219-.625 0-.784-.027-1.157-.202a2.913 2.913 0 0 1-1.37-1.332l-.008-.017c-.23-.466-.248-.559-.248-1.266 0-.677.024-.813.207-1.183.387-.789 1.146-1.397 1.962-1.573.547-.118.579-.119 1.11-.021z"/>
    </symbol>
    <symbol id="icon-fullyIntegrated" viewBox="0 0 44 32">
      <path d="M2.518 2.289h11.981a.382.382 0 0 0 .268-.109l1.151-1.123A1.784 1.784 0 0 1 17.17.551h18.168c.846 0 1.631.41 2.101 1.097l2.177 3.186c.309.452.337 1.031.074 1.51s-.773.777-1.33.777h-9.364v.923h4.796c1.271 0 2.415.737 2.914 1.878l2.808 6.42 2.46.96c1.314.513 2.162 1.735 2.162 3.116v5.946c0 .887-.74 1.608-1.649 1.608h-2.862c-.333 1.968-2.089 3.475-4.2 3.475s-3.867-1.507-4.2-3.475H15.58c-.333 1.968-2.09 3.475-4.2 3.475s-3.867-1.507-4.2-3.475H1.463c-.808 0-1.466-.641-1.466-1.43V4.745c0-1.355 1.129-2.457 2.518-2.457zm32.909 27.802c1.581 0 2.867-1.254 2.867-2.796s-1.286-2.796-2.867-2.796-2.866 1.254-2.866 2.796 1.286 2.796 2.866 2.796zm-6.429-3.475h2.228l.02-.101.013-.068c.011-.053.024-.106.037-.159l.008-.033c.017-.063.035-.126.055-.188l.018-.054c.014-.043.029-.087.045-.13l.027-.068a2.18 2.18 0 0 1 .045-.112l.032-.072c.016-.035.031-.07.048-.104l.037-.073c.017-.033.034-.067.052-.099l.04-.072c.018-.033.038-.065.057-.097a4.052 4.052 0 0 1 .106-.165l.043-.063.075-.102.039-.053c.035-.045.07-.087.105-.13l.016-.02c.041-.049.084-.097.127-.143.013-.015.027-.028.041-.042l.093-.096.054-.051.087-.081.06-.052.087-.074.064-.05.09-.069.066-.048.093-.065.067-.044c.033-.022.067-.042.1-.063l.066-.04c.037-.022.075-.042.112-.063l.057-.032.163-.082.013-.006c.059-.028.119-.054.179-.079l.059-.023c.041-.016.083-.033.125-.048l.072-.025.116-.038.079-.023.114-.032.082-.021.114-.026.084-.017a4.141 4.141 0 0 1 .325-.049l.08-.009c.046-.004.092-.008.138-.01.023-.002.045-.004.068-.004a3.644 3.644 0 0 1 .418 0l.068.004.138.01c.027.002.053.006.08.009l.124.016.084.013.117.02a2.498 2.498 0 0 1 .198.043l.082.021.114.032.079.023.116.038.072.025.125.048.059.023c.06.025.12.052.179.079l.013.006c.055.026.109.053.163.082l.057.032c.038.021.076.041.112.063l.066.04c.033.021.067.041.1.063l.067.044.094.065.066.048.09.069.063.05.087.074.06.052.087.081.054.051c.032.031.062.064.093.096l.041.042c.043.047.086.094.127.143l.016.02c.036.043.071.086.105.13l.039.053a2.425 2.425 0 0 1 .118.165l.064.097.042.068c.02.032.039.065.057.097l.039.072a2.354 2.354 0 0 1 .089.172l.048.104.032.072c.016.037.031.074.045.112l.027.068c.016.043.031.086.045.13l.018.054c.019.062.038.124.054.188l.008.033c.013.053.026.105.037.159l.013.068c.007.034.014.067.019.101h2.861a.254.254 0 0 0 .257-.251v-2.844H41.66v-1.358h1.085v-1.744c0-.822-.505-1.55-1.287-1.855l-2.604-1.016h-9.857v9.068zm0-10.426h8.938l-2.508-5.735a1.775 1.775 0 0 0-1.634-1.053h-4.796v6.787zM11.382 30.091c1.581 0 2.866-1.254 2.866-2.796s-1.286-2.796-2.866-2.796c-.05 0-.099.001-.148.004-1.317.065-2.402 1.002-2.661 2.23l-.026.138a2.874 2.874 0 0 0-.033.425c0 1.542 1.286 2.796 2.867 2.796zm-9.991-7.928h1.085v1.358H1.391v3.023c0 .04.033.072.074.072h5.716l.019-.1.013-.07c.011-.052.023-.104.037-.155l.009-.036c.017-.063.035-.125.055-.187l.019-.056c.014-.043.029-.086.045-.128l.027-.07c.014-.037.029-.074.045-.11l.033-.074c.016-.034.031-.069.048-.103l.037-.074.052-.099.04-.072.057-.097.042-.069a4.005 4.005 0 0 1 .106-.16l.073-.1.041-.055c.033-.043.067-.085.102-.127l.018-.022a4.45 4.45 0 0 1 .169-.186c.031-.032.061-.064.092-.094l.055-.052.086-.08.06-.053.087-.073.064-.052.089-.068.066-.048.093-.065.067-.045c.033-.022.066-.042.1-.062l.066-.04c.037-.022.074-.042.112-.063l.058-.032c.053-.028.106-.055.161-.08l.014-.007c.059-.028.119-.054.179-.079l.059-.023c.042-.016.083-.033.125-.048l.073-.025.115-.038a2.35 2.35 0 0 1 .079-.023l.114-.032.082-.021.114-.026.084-.017.117-.02a4.654 4.654 0 0 1 .288-.038c.046-.004.092-.008.138-.01.023-.002.045-.004.068-.004a3.644 3.644 0 0 1 .418 0l.068.004.138.01c.027.002.054.006.08.009a4.654 4.654 0 0 1 .207.029l.118.02a2.498 2.498 0 0 1 .198.043l.082.021.114.032.079.023.115.038.073.025.125.048.059.023a5.714 5.714 0 0 1 .354.166l.058.032c.037.021.075.041.112.063l.066.04.1.062.067.045c.031.021.062.042.093.065l.066.048.089.068.064.052a3.052 3.052 0 0 1 .147.125l.087.081.054.051.093.095.041.043c.043.047.086.094.127.143l.017.021a4.5 4.5 0 0 1 .104.129l.04.053c.025.034.05.067.074.102l.043.064a2.007 2.007 0 0 1 .105.165c.02.032.039.065.057.097l.04.072.053.099.036.073.048.104.032.072a3.745 3.745 0 0 1 .118.311c.006.018.013.035.018.053a4.048 4.048 0 0 1 .133.549h12.024V6.444c0-.375.312-.679.696-.679h10.059c.017 0 .07 0 .103-.06s.004-.103-.006-.116l-2.177-3.186a1.14 1.14 0 0 0-.943-.492H17.171a.38.38 0 0 0-.268.109l-1.151 1.123a1.782 1.782 0 0 1-1.252.506H2.519c-.621 0-1.127.493-1.127 1.099v17.417z"/>
      <path d="M19.422 7.501h4.401c.889 0 1.612.705 1.612 1.573v14.527a.688.688 0 0 1-.696.679h-6.234a.688.688 0 0 1-.696-.679V9.074c-.001-.868.722-1.573 1.612-1.573zm-.221 15.421h4.842V14.94h-4.842v7.982zm0-9.339h4.842V9.075a.219.219 0 0 0-.221-.216h-4.401a.219.219 0 0 0-.221.216l.001 4.508z"/>
    </symbol>
    <symbol id="icon-alcove" viewBox="0 0 44 32">
      <path d="M2.518 2.289h11.981a.382.382 0 0 0 .268-.109l1.151-1.123A1.784 1.784 0 0 1 17.17.551h18.168c.846 0 1.631.41 2.101 1.097l2.177 3.186c.309.452.337 1.031.074 1.51s-.773.777-1.33.777h-9.364v.923h4.796c1.271 0 2.415.737 2.914 1.878l2.808 6.42 2.46.96c1.314.513 2.162 1.735 2.162 3.116v5.946c0 .887-.74 1.608-1.649 1.608h-2.862c-.333 1.968-2.089 3.475-4.2 3.475s-3.867-1.507-4.2-3.475H15.58c-.333 1.968-2.09 3.475-4.2 3.475s-3.867-1.507-4.2-3.475H1.463c-.808 0-1.466-.641-1.466-1.43V4.745c0-1.355 1.129-2.457 2.518-2.457zm32.909 27.802c1.581 0 2.867-1.254 2.867-2.796s-1.286-2.796-2.867-2.796-2.866 1.254-2.866 2.796 1.286 2.796 2.866 2.796zm-6.429-3.475h2.228l.02-.101.013-.068c.011-.053.024-.106.037-.159l.008-.033c.017-.063.035-.126.055-.188l.018-.054c.014-.043.029-.087.045-.13l.027-.068a2.18 2.18 0 0 1 .045-.112l.032-.072c.016-.035.031-.07.048-.104l.037-.073c.017-.033.034-.067.052-.099l.04-.072c.018-.033.038-.065.057-.097a4.052 4.052 0 0 1 .106-.165l.043-.063.075-.102.039-.053c.035-.045.07-.087.105-.13l.016-.02c.041-.049.084-.097.127-.143.013-.015.027-.028.041-.042l.093-.096.054-.051.087-.081.06-.052.087-.074.063-.05.09-.069.066-.048.093-.065.067-.044c.033-.022.067-.042.1-.063l.066-.04c.037-.022.075-.042.112-.063l.057-.032.163-.082.013-.006c.059-.028.119-.054.179-.079l.059-.023c.041-.016.083-.033.125-.048l.072-.025.116-.038.079-.023.114-.032.082-.021.114-.026.084-.017a4.141 4.141 0 0 1 .325-.049l.08-.009c.046-.004.092-.008.138-.01.023-.002.045-.004.068-.004a3.644 3.644 0 0 1 .418 0l.068.004.138.01c.027.002.053.006.08.009l.124.016.084.013.117.02a2.498 2.498 0 0 1 .198.043l.082.021.114.032.079.023.116.038.072.025.125.048.059.023c.06.025.12.052.179.079l.013.006c.055.026.109.053.163.082l.057.032c.038.021.076.041.112.063l.066.04c.033.021.067.041.1.063l.067.044.094.065.066.048.09.069.063.05.087.074.06.052.087.081.054.051c.032.031.062.064.093.096l.041.042c.043.047.086.094.127.143l.016.02c.036.043.071.086.105.13l.039.053a2.425 2.425 0 0 1 .118.165l.064.097.042.068c.02.032.039.065.057.097l.039.072a2.354 2.354 0 0 1 .089.172l.048.104.032.072c.016.037.031.074.045.112l.027.068c.016.043.031.086.045.13l.018.054c.019.062.038.124.054.188l.008.033c.013.053.026.105.037.159l.013.068c.007.034.014.067.019.101h2.861a.254.254 0 0 0 .257-.251v-2.844h-1.085v-1.358h1.085v-1.744c0-.822-.505-1.55-1.287-1.855l-2.604-1.016h-9.857v9.068zm0-10.426h8.938l-2.508-5.735a1.775 1.775 0 0 0-1.634-1.053h-4.796v6.787zM11.382 30.091c1.581 0 2.866-1.254 2.866-2.796s-1.286-2.796-2.866-2.796c-.05 0-.099.001-.148.004-1.317.065-2.402 1.002-2.661 2.23l-.026.138a2.874 2.874 0 0 0-.033.425c0 1.542 1.286 2.796 2.867 2.796zm-9.991-7.928h1.085v1.358H1.391v3.023c0 .04.033.072.074.072h5.716l.019-.1.013-.07c.011-.052.023-.104.037-.155l.009-.036c.017-.063.035-.125.055-.187l.019-.056c.014-.043.029-.086.045-.128l.027-.07c.014-.037.029-.074.045-.11l.033-.074c.016-.034.031-.069.048-.103l.037-.074.052-.099.04-.072.057-.097.042-.069a4.005 4.005 0 0 1 .106-.16l.073-.1.041-.055c.033-.043.067-.085.102-.127l.018-.022a4.45 4.45 0 0 1 .169-.186c.031-.032.061-.064.092-.094l.055-.052.086-.08.06-.053.087-.073.064-.052.089-.068.066-.048.093-.065.067-.045c.033-.022.066-.042.1-.062l.066-.04c.037-.022.074-.042.112-.063l.058-.032c.053-.028.106-.055.161-.08l.014-.007c.059-.028.119-.054.179-.079l.059-.023c.042-.016.083-.033.125-.048l.073-.025.115-.038a2.35 2.35 0 0 1 .079-.023l.114-.032.082-.021.114-.026.084-.017.117-.02a4.654 4.654 0 0 1 .288-.038c.046-.004.092-.008.138-.01.023-.002.045-.004.068-.004a3.644 3.644 0 0 1 .418 0l.068.004.138.01c.027.002.054.006.08.009a4.654 4.654 0 0 1 .207.029l.118.02a2.498 2.498 0 0 1 .198.043l.082.021.114.032.079.023.115.038.073.025.125.048.059.023a5.714 5.714 0 0 1 .354.166l.058.032c.037.021.075.041.112.063l.066.04.1.062.067.045c.031.021.062.042.093.065l.066.048.089.068.064.052a3.052 3.052 0 0 1 .147.125l.087.081.054.051.093.095.041.043c.043.047.086.094.127.143l.017.021a4.5 4.5 0 0 1 .104.129l.04.053c.025.034.05.067.074.102l.043.064a2.007 2.007 0 0 1 .105.165c.02.032.039.065.057.097l.04.072.053.099.036.073.048.104.032.072a3.745 3.745 0 0 1 .118.311c.006.018.013.035.018.053a4.048 4.048 0 0 1 .133.549h12.024V6.444c0-.375.312-.679.696-.679h10.059c.017 0 .07 0 .103-.06s.004-.103-.006-.116l-2.177-3.186a1.14 1.14 0 0 0-.943-.492H17.171a.38.38 0 0 0-.268.109l-1.151 1.123a1.782 1.782 0 0 1-1.252.506H2.519c-.621 0-1.127.493-1.127 1.099v17.417z"/>
      <path d="M19.422 7.501h4.401c.889 0 1.612.705 1.612 1.573v14.527a.688.688 0 0 1-.696.679h-6.234a.688.688 0 0 1-.696-.679V9.074c-.001-.868.722-1.573 1.612-1.573zm-.221 15.421h4.842V14.94h-4.842v7.982zm0-9.339h4.842V9.075a.219.219 0 0 0-.221-.216h-4.401a.219.219 0 0 0-.221.216l.001 4.508zM5.345 7.501h8.51c.983 0 1.784.781 1.784 1.74V13.2c0 .959-.8 1.74-1.784 1.74H5.344c-.984 0-1.784-.781-1.784-1.74V9.241c.001-.959.801-1.74 1.784-1.74zM4.952 13.2c0 .211.176.383.392.383h8.51a.388.388 0 0 0 .392-.383V9.241a.388.388 0 0 0-.392-.383H5.343a.388.388 0 0 0-.392.383l.001 3.959z"/>
    </symbol>
    <!-- Other -->
    <symbol id="icon-heart" viewBox="0 0 32 32">
      <path d="M8.96 2.488a8.613 8.613 0 0 0-3.673 1.008l.046-.023C2.794 4.784 1.085 7.18.634 10.053c-.087.549-.087 2.011 0 2.56a9.023 9.023 0 0 0 1.747 4.129l-.016-.022c.4.537 12.481 12.651 12.86 12.896.252.161.292.171.775.171s.523-.009.775-.171c.379-.245 12.46-12.359 12.86-12.896a8.944 8.944 0 0 0 1.724-4.056l.006-.051c.037-.235.067-.811.067-1.28 0-.881-.057-1.397-.239-2.133-.855-3.479-3.791-6.131-7.353-6.641-.619-.088-1.997-.079-2.588.02-1.883.311-3.471 1.103-4.812 2.401l-.44.425-.44-.425c-1.769-1.712-4.184-2.624-6.6-2.492zm1.92 3.243c1.207.335 1.821.733 3.173 2.057.557.545 1.109 1.051 1.227 1.121.187.115.277.131.72.131.441 0 .533-.016.72-.129.117-.071.657-.565 1.2-1.097 1.053-1.035 1.441-1.341 2.115-1.675.911-.449 1.759-.62 2.845-.575 1.765.073 3.283.879 4.385 2.329.335.439.745 1.279.915 1.869a6.022 6.022 0 0 1-.011 3.185l.01-.042a6.86 6.86 0 0 1-.942 1.916l.014-.022c-.153.205-2.748 2.845-5.765 5.867l-5.485 5.493-5.485-5.493c-3.017-3.021-5.612-5.661-5.765-5.867a6.633 6.633 0 0 1-.521-.867l-.018-.039c-1.108-2.277-.664-4.907 1.128-6.687a5.79 5.79 0 0 1 2.702-1.512l.04-.008c.5-.125.588-.132 1.467-.113.693.015.908.04 1.333.157z"/>
    </symbol>
    <symbol id="icon-heart-filled" viewBox="0 0 32 32">
      <path d="M8.08 2.587a8.845 8.845 0 0 0-5.038 2.617l-.003.003C1.402 6.91.579 8.96.579 11.334c0 1.975.543 3.648 1.705 5.253.373.515 12.744 12.917 13.049 13.083.307.167 1.028.167 1.333 0 .304-.164 12.615-12.507 13.023-13.056 1.171-1.573 1.732-3.287 1.732-5.28 0-1.437-.292-2.719-.901-3.947-.873-1.761-2.5-3.323-4.28-4.108a8.298 8.298 0 0 0-3.522-.772l-.124.001h.006-.091a8.605 8.605 0 0 0-4.546 1.29L18 3.777c-.463.276-.889.605-1.479 1.144l-.519.473-.585-.531c-1.395-1.267-2.871-1.979-4.711-2.273-.624-.1-2.008-.101-2.627-.003z"/>
    </symbol>
    <symbol id="icon-location" viewBox="0 0 32 32">
      <path d="m14.992.173-.624.072c-3.319.381-6.521 2.17-8.669 4.844a13.082 13.082 0 0 0-2.885 8.223c0 .767.066 1.519.192 2.249l-.011-.078c.775 4.62 4.196 9.607 9.765 14.235 1.159.963 2.434 1.912 2.781 2.069a1.277 1.277 0 0 0 .927-.003l-.009.003c.347-.157 1.619-1.104 2.783-2.069 2.876-2.389 5.262-4.966 6.912-7.465 2.46-3.724 3.41-7.264 2.901-10.802a13.185 13.185 0 0 0-7.146-9.905l-.076-.034A12.454 12.454 0 0 0 17.867.268L17.8.26c-.456-.069-2.439-.13-2.809-.086zm2.151 2.423a10.857 10.857 0 0 1 9.08 7.271l.023.076c1.162 3.497.493 7.046-2.06 10.941-1.477 2.256-3.886 4.852-6.505 7.013-.855.706-1.618 1.293-1.68 1.293s-.826-.587-1.68-1.293a37.224 37.224 0 0 1-2.806-2.566l-.004-.004c-3.566-3.562-5.673-7.118-6.19-10.444-.461-2.954.434-6.104 2.412-8.488 1.724-2.079 4.351-3.49 7.069-3.798a15.731 15.731 0 0 1 2.396.002l-.053-.003zm-2.087 5.636c-1.951.355-3.556 1.847-4.082 3.796-.115.429-.13.562-.13 1.295-.002.68.014.883.101 1.224a5.257 5.257 0 0 0 3.819 3.848l.036.008c.589.149 1.812.149 2.4 0a5.257 5.257 0 0 0 3.848-3.819l.008-.036c.086-.341.102-.544.101-1.224 0-.733-.014-.866-.13-1.295-.53-1.964-2.14-3.452-4.108-3.796a6.872 6.872 0 0 0-1.899.004l.036-.004zm1.592 2.386c.382.08.888.347 1.208.637.618.56.928 1.248.928 2.06 0 .837-.242 1.427-.816 2-.571.568-1.17.816-1.968.816s-1.397-.248-1.968-.816c-.575-.573-.816-1.163-.816-2 0-.797.307-1.493.898-2.032.703-.642 1.563-.867 2.535-.664z"/>
    </symbol>
    <symbol id="icon-star" viewBox="0 0 32 32">
      <path d="m33.514 12.222-11.54-1.676L16.813.089l-5.161 10.457-11.54 1.676 8.351 8.14-1.971 11.492 10.321-5.426 10.321 5.426-1.971-11.492 8.351-8.14z"/>
    </symbol>
    <symbol id="icon-calendar" viewBox="0 0 32 32">
      <path d="M10.189 1.578c-.13.061-.242.137-.34.227l.001-.001c-.299.285-.326.389-.355 1.397l-.026.933-1.815.03c-2 .032-2.055.04-2.753.405a3.938 3.938 0 0 0-1.963 2.429l-.006.028c-.106.408-.107.594-.106 10.317.002 9.672.003 9.909.106 10.311.338 1.314 1.44 2.418 2.756 2.754.402.102.632.106 10.316.106s9.914-.003 10.316-.106c1.315-.336 2.418-1.44 2.756-2.754.102-.402.104-.639.106-10.311.002-9.723 0-9.909-.106-10.317a3.94 3.94 0 0 0-1.949-2.446l-.021-.01c-.698-.365-.752-.373-2.753-.405l-1.815-.03-.026-.933c-.029-1.008-.056-1.112-.355-1.397a1.229 1.229 0 0 0-1.639.001l.001-.001c-.301.285-.326.389-.355 1.397l-.027.933H11.87l-.027-.933c-.029-1.008-.054-1.112-.355-1.397a1.282 1.282 0 0 0-1.306-.223l.009-.003zm-.694 5.891c.029 1.008.056 1.112.355 1.397.55.523 1.504.368 1.877-.304.069-.126.094-.36.115-1.093l.027-.935h8.267l.027.935c.029 1.008.054 1.112.355 1.397a1.229 1.229 0 0 0 1.639-.001l-.001.001c.299-.285.326-.389.355-1.397l.026-.935h1.547c1.511.002 1.554.003 1.826.126.342.155.658.488.792.837.094.245.102.427.102 2.452v2.186H5.2V9.949c0-2.018.008-2.208.101-2.448a1.528 1.528 0 0 1 1.107-.936l.01-.002c.123-.024.859-.04 1.635-.037l1.415.008.026.935zm17.31 13.255c0 5.958-.003 6.198-.102 6.451-.155.37-.433.664-.783.834l-.009.004-.278.125h-9.602c-9.317 0-9.61-.003-9.866-.101a1.623 1.623 0 0 1-.833-.784l-.004-.01-.126-.278-.014-6.16c-.008-3.388-.003-6.19.011-6.228.022-.054 2.058-.066 10.816-.054l10.791.013v6.188z"/>
    </symbol>
    <symbol id="icon-chevron-left" viewBox="0 0 32 32">
      <path d="M24.771 31.438c-0.75 0.75-1.965 0.75-2.715 0l-14.080-14.080c-0.75-0.75-0.75-1.965 0-2.715l14.080-14.080c0.75-0.75 1.965-0.75 2.715 0s0.75 1.966 0 2.715l-12.722 12.722 12.722 12.722c0.75 0.75 0.75 1.965 0 2.715z"></path>
    </symbol>
    <symbol id="icon-chevron-right" viewBox="0 0 32 32">
      <path d="M7.229 0.562c0.75-0.75 1.965-0.75 2.715 0l14.080 14.080c0.75 0.75 0.75 1.965 0 2.715l-14.080 14.080c-0.75 0.75-1.965 0.75-2.715 0s-0.75-1.965 0-2.715l12.722-12.722-12.722-12.722c-0.75-0.75-0.75-1.965 0-2.715z"></path>
    </symbol>
    <symbol id="icon-close" viewBox="0 0 32 32">
      <path d="M7.469 6.6c-0.329 0.116-0.757 0.554-0.872 0.891-0.054 0.153-0.086 0.33-0.086 0.514 0 0.181 0.030 0.355 0.086 0.517l-0.003-0.011c0.079 0.239 0.415 0.592 3.693 3.877l3.606 3.613-3.606 3.613c-3.278 3.285-3.614 3.638-3.693 3.877-0.191 0.581-0.064 1.126 0.364 1.553 0.427 0.428 0.972 0.555 1.553 0.364 0.239-0.079 0.592-0.415 3.877-3.693l3.613-3.606 3.613 3.606c3.285 3.278 3.638 3.614 3.877 3.693 0.581 0.191 1.126 0.064 1.553-0.364 0.428-0.427 0.555-0.972 0.364-1.553-0.079-0.239-0.415-0.592-3.693-3.877l-3.606-3.613 3.606-3.613c3.278-3.285 3.614-3.638 3.693-3.877 0.191-0.581 0.064-1.126-0.364-1.553-0.427-0.428-0.972-0.555-1.553-0.364-0.239 0.079-0.592 0.415-3.877 3.693l-3.613 3.606-3.613-3.606c-3.285-3.278-3.638-3.614-3.877-3.693-0.153-0.050-0.329-0.079-0.512-0.079-0.19 0-0.372 0.031-0.542 0.088l0.012-0.003z"></path>
    </symbol>
  </defs>
</svg>
